<?xml version="1.0" encoding="UTF-8"?>
<svg xmlns="http://www.w3.org/2000/svg" version="1.1" viewBox="0 0 1281 759.3">
  <defs>
    <style>
      .cls-1 {
        fill: #fff;
      }

      .cls-1, .cls-2, .cls-3 {
        stroke: #000;
        stroke-miterlimit: 10;
        stroke-width: 10px;
      }

      .cls-2 {
        fill: #c1272d;
      }

      .cls-3 {
        fill: red;
      }
    </style>
  </defs>
  <!-- Generator: Adobe Illustrator 28.7.1, SVG Export Plug-In . SVG Version: 1.2.0 Build 142)  -->
  <g>
    <g id="Camada_1">
      <g>
        <path class="cls-2" d="M348.3,362.6s22.4-127,195.4-151.2c173-24.1,247.7,21.8,247.7,21.8,0,0,86.2,17.8,120.7,94.3,34.5,76.4,36.8,143.7,9.2,172.4-27.6,28.7-82.8,57.5-130.5,56.3s-184.5-12.6-202.3-9.2c-17.8,3.4-118.4,12.1-144.3,4-25.9-8-132.2-34.5-96-188.5h0Z"/>
        <path class="cls-1" d="M442.5,247.7s14.9,37.4,48.3,29.3c33.3-8,50-46,47.7-60.9-2.3-14.9,28.7,60.9,62.6,51.7,33.9-9.2,59.2-28.7,56.3-56.9-2.9-28.2,4.6,52.9,33.9,56.9,29.3,4,50.4-.6,60.9-39.7,6.3-23.6-4.1,43.1,23.2,50,27.3,6.9,58.9,18.4,70.7-22.1,0,0-225-113.5-403.7-8.3h0Z"/>
        <path class="cls-3" d="M496.6,549.4s42.5-52.9,83.9-71.3c41.4-18.4,117.8-16.1,136.8,2.9,19,19-42.3,56.9-40.7,68.4,0,0-162.7,1.2-180,0h0Z"/>
      </g>
    </g>
  </g>
</svg>