<?xml version="1.0" encoding="UTF-8"?>
<svg xmlns="http://www.w3.org/2000/svg" version="1.1" viewBox="0 0 1146.5 440.1">
  <defs>
    <style>
      .cls-1 {
        fill: red;
      }

      .cls-1, .cls-2, .cls-3, .cls-4 {
        stroke: #000;
        stroke-linecap: square;
        stroke-linejoin: bevel;
      }

      .cls-1, .cls-3, .cls-4 {
        stroke-width: 10px;
      }

      .cls-2 {
        fill: #c1272d;
        stroke-width: 16px;
      }

      .cls-3 {
        fill: none;
      }

      .cls-4 {
        fill: #fff;
      }
    </style>
  </defs>
  <!-- Generator: Adobe Illustrator 28.7.1, SVG Export Plug-In . SVG Version: 1.2.0 Build 142)  -->
  <g>
    <g id="Camada_1">
      <g>
        <path class="cls-2" d="M264,193.9s80.3-133.7,355.8-101.8c224.1,26,267.4,99.6,267.4,142s-104.8,61.7-138.7,60.4c-33.9-1.2-242.2-17.3-297.5,0-55.3,17.4-200.3-10.6-192.1-88.5h0l5.1-12.1Z"/>
        <path class="cls-4" d="M266.5,240.8s60.2-69.2,100.8-39.5,39.7,74.9,25.7,94.5c0,0,1-95.8,55-83.1,54.1,12.7,53.2,41,42.4,75.8,0,0,27-78,65.5-68.7s44.4,42.7,39.9,67.5c0,0,7.3-73.7,55.9-64.4,48.6,9.3,32,51.5,33.1,68.1,0,0-7.3-71.2,17.8-71.2s47.2,23.3,39.5,64.8c0,0-13.1-51.1,6.9-59.8s89.7-12.1,75.7,57.8c0,0-87.9,19-180,6.4-92.1-12.5-189.6.2-222.2,9.7s-127.2,5.7-156-57.8h0Z"/>
        <path class="cls-1" d="M367.3,121.2s119.2,84.8,149.7,207c5.3,21.4,253.7,74.2,225-83.5-28.7-157.7-161.7-157.1-161.7-157.1,0,0-97.2-12.5-213,33.7h0Z"/>
        <path class="cls-4" d="M338.9,135.5s20.4,58.7,49.7,61.2,66.7-38.5,72.6-102.5c0,0-3.2,95.6,50.6,99.4s87.5-87.9,88.1-101.6c0,0-21.2,106,21.8,113.4,40.1,7,89.2-61.8,97.7-90.4.3-.9-1-1.4-1.4-.6-7.4,14.8-26.4,59-.2,79.1,31.7,24.3,75.4,4.8,107.1-44.6,0,0-277.1-126.9-486.1-13.4h.1Z"/>
        <path class="cls-3" d="M221.5,167.3s-11.2,76,14.3,91"/>
        <path class="cls-3" d="M926.1,193.5s8.4,86.6-17.1,99.1"/>
      </g>
    </g>
  </g>
</svg>