<?xml version="1.0" encoding="UTF-8"?>
<svg xmlns="http://www.w3.org/2000/svg" version="1.1" viewBox="0 0 1267.9 387.4">
  <defs>
    <style>
      .cls-1 {
        fill: #c1272d;
        stroke-miterlimit: 10;
        stroke-width: 16px;
      }

      .cls-1, .cls-2 {
        stroke: #000;
      }

      .cls-2 {
        fill: #fff;
        stroke-linejoin: bevel;
        stroke-width: 10px;
      }
    </style>
  </defs>
  <!-- Generator: Adobe Illustrator 28.7.1, SVG Export Plug-In . SVG Version: 1.2.0 Build 142)  -->
  <g>
    <g id="Camada_1">
      <g id="Camada_3">
        <g>
          <path class="cls-1" d="M314.1,212.5s37-98.3,227.2-107.5c190.2-9.3,319.1,13.5,354.7,36.3s111.8,95.4,7.1,137.5c0,0-96.9,12.1-172.4,7.8-75.5-4.3-272.7-3.9-315.8.9-43.1,4.8-117.9-25.8-100.8-75h0Z"/>
          <path class="cls-2" d="M410,130.2s-7.5,65.2,53,59.5,47.8-11.3,47.7-42.7c0-33.8-.3-34.7-.2-31.3,0,0-6.9,36.2,38.7,61.8,45.6,25.6,86.2-22,89.7-29.5,2.3-1.7,1-10.6,9.9-51,0,0-16.3,46.3,23.6,80.5s72.6,9.3,78.3-2.1,19.2-28.1,30.6-63.7c0,0,1.4,45.2,17.1,63,36,40.9,81.9,15.7,86.9,9.3s19.6-35.1,19.6-35.1c2.1-16-243.8-96.1-494.9-18.7h0Z"/>
          <path class="cls-2" d="M311.6,235.4s75.2-64.1,117.9-37.8,25.6,65,6.7,88.4c2.5,2.7,43.8-85.6,63.7-84.2,19.9,1.4,47.1,8.1,54.2,36.8,7.1,28.7-4,45-4,45,0,0,26-84.7,53.8-80.4s55.6,4.3,59.1,30.6c3.6,26.4-1.4,49.1-7.5,54.1,0,0,32.4-82.6,69.4-75.5s59.5,34.5,48.6,74.9c0,0,9.9-76.2,35.1-78.8s54.4-4.7,65.8,20.2c11.4,24.9,2.9,52.6,2.9,52.6,0,0-196.9,10.7-273,2.2s-143.8,1.3-155.9,1.7-104,27.7-137.1-50l.3.2Z"/>
        </g>
      </g>
    </g>
  </g>
</svg>