<?xml version="1.0" encoding="UTF-8"?>
<svg xmlns="http://www.w3.org/2000/svg" version="1.1" viewBox="0 0 1281 759.3">
  <defs>
    <style>
      .cls-1, .cls-2, .cls-3, .cls-4 {
        stroke-miterlimit: 10;
      }

      .cls-1, .cls-2, .cls-3, .cls-4, .cls-5 {
        stroke: #000;
      }

      .cls-1, .cls-4, .cls-5 {
        stroke-width: 10px;
      }

      .cls-1, .cls-5 {
        fill: #fff;
      }

      .cls-2 {
        fill: none;
      }

      .cls-2, .cls-3 {
        stroke-width: 16px;
      }

      .cls-3 {
        fill: #c1272d;
      }

      .cls-4 {
        fill: red;
      }

      .cls-5 {
        stroke-linecap: square;
        stroke-linejoin: bevel;
      }
    </style>
  </defs>
  <!-- Generator: Adobe Illustrator 28.7.1, SVG Export Plug-In . SVG Version: 1.2.0 Build 142)  -->
  <g>
    <g id="Camada_1">
      <g id="Camada_1-2" data-name="Camada_1">
        <g>
          <path class="cls-3" d="M328.4,361.5s23.9-135.6,208.7-161.4c184.7-25.8,264.5,23.3,264.5,23.3,0,0,92.1,19,128.9,100.7,36.8,81.7,39.3,153.4,9.8,184.1s-88.4,61.4-139.3,60.1-197-13.5-216-9.8-126.4,12.9-154.1,4.3c-27.6-8.6-141.2-36.8-102.5-201.3h0Z"/>
          <path class="cls-1" d="M429.1,238.7s16,39.9,51.6,31.3c35.6-8.6,53.4-49.1,50.9-65.1s30.7,65.1,66.9,55.2c36.2-9.8,63.2-30.7,60.1-60.8-3.1-30.1,4.9,56.5,36.2,60.8,31.3,4.3,53.9-.6,65.1-42.3,6.8-25.2-4.4,46,24.8,53.4,29.2,7.4,62.9,19.6,75.5-23.6,0,0-240.2-121.2-431.1-8.9h0Z"/>
          <path class="cls-4" d="M486.8,560.9s45.4-56.5,89.6-76.1c44.2-19.6,125.8-17.2,146.1,3.1,20.3,20.3-45.2,60.8-43.5,73,0,0-173.8,1.2-192.2,0h0Z"/>
          <path class="cls-5" d="M469.5,566.3s-30.7-41-9.1-56.6c21.7-15.6,51.9,26,56.4,51.7,0,0-18.1-55.7,6.5-69.3,24.7-13.6,49.2,9.8,49.7,15.9s2,39,3.3,51.6c0,0-8.3-48.8,12.9-71.7,21.1-22.9,48.6,7.9,48.3,30.4-.2,20.9.5,41.4.5,41.4,0,0-11.7-78.6,29.2-79.4,40.9-.7,40.8,24.8,37.8,43-3,18.2-15.1,38.8-19.6,38.5,0,0-198.4-7.4-216.1,4.5h.2Z"/>
        </g>
      </g>
      <path class="cls-2" d="M257,405s-14,97,32,136"/>
      <path class="cls-2" d="M1000,396s21,149-25,160"/>
    </g>
  </g>
</svg>