<?xml version="1.0" encoding="UTF-8"?><svg id="Camada_2" xmlns="http://www.w3.org/2000/svg" viewBox="0 0 1146.53 440.06"><defs><style>.cls-1{fill:#fff;}.cls-1,.cls-2,.cls-3,.cls-4{stroke:#000;stroke-miterlimit:10;stroke-width:10px;}.cls-2{fill:#c1272d;}.cls-3{fill:red;}.cls-4{fill:none;}</style></defs><path class="cls-2" d="M68.94,197.64S205.93-36.5,647.96,14.81c359.57,41.74,428.98,159.85,428.98,227.79s-168.17,98.91-222.54,96.91-388.56-27.79-477.24.09c-88.68,27.88-321.3-17.07-308.21-141.96Z"/><path class="cls-1" d="M81.04,253.4s96.56-111,161.73-63.45,63.65,120.24,41.16,151.55c0,0,1.55-153.67,88.28-133.34s85.29,65.77,68.01,121.55c0,0,43.3-125.09,105.01-110.15s71.27,68.5,63.99,108.22c0,0,11.72-118.28,89.72-103.28s51.29,82.61,53.15,109.31c0,0-11.77-114.17,28.54-114.24s75.7,37.37,63.31,103.93c0,0-21-82,11-96s143.98-19.41,121.49,92.79c0,0-141.02,30.43-288.76,10.32s-304.11.27-356.42,15.58-204.1,9.11-250.2-92.79Z"/><path class="cls-3" d="M242.77,61.48s191.16,136.02,240.16,332.02c8.57,34.29,407,119,361-134S584.49,7.46,584.49,7.46c0,0-155.88-19.99-341.72,54.02Z"/><path class="cls-1" d="M197.21,84.39s32.73,94.11,79.73,98.11,107.07-61.81,116.53-164.41c0,0-5.15,153.42,81.16,159.41S614.93,36.5,615.93,14.5c0,0-34,170,35,182,64.39,11.2,143.11-99.21,156.81-145.04.43-1.42-1.59-2.22-2.25-.89-11.86,23.72-42.31,94.73-.35,126.94,50.79,38.99,120.93,7.78,171.86-71.61,0,0-444.52-203.62-779.79-21.51Z"/><path class="cls-4" d="M8.93,135.5s-18,122,23,146"/><path class="cls-4" d="M1139.38,177.51s13.55,138.99-27.45,158.99"/></svg>