<?xml version="1.0" encoding="UTF-8"?>
<svg xmlns="http://www.w3.org/2000/svg" version="1.1" viewBox="0 0 677.8 783.7">
  <defs>
    <style>
      .cls-1 {
        fill: #fff;
      }

      .cls-1, .cls-2, .cls-3, .cls-4 {
        stroke: #000;
        stroke-linejoin: bevel;
        stroke-width: 10px;
      }

      .cls-2 {
        fill: #c1272d;
      }

      .cls-3 {
        fill: red;
      }

      .cls-4 {
        fill: none;
      }
    </style>
  </defs>
  <!-- Generator: Adobe Illustrator 28.7.1, SVG Export Plug-In . SVG Version: 1.2.0 Build 142)  -->
  <g>
    <g id="Camada_3">
      <g>
        <path class="cls-2" d="M226.7,413.5c-2.5-6.8-59.5-56.4-68.2-133.9-8.7-77.5,55.8-78.1,90.4-91.2,34.5-13,110.5-2.5,173.2,0,62.6,2.5,92.4,102.9,88.9,191.6s-121.2,142-121.2,142c-75,24.2-160.6-101.7-163.1-108.5Z"/>
        <path class="cls-1" d="M471.5,216.6c-39.8-38.2-26.5-19.5-62.4-28.8-35.9-9.3-152.7-3.7-158.4,0-5.7,3.7-47.6,10-45.6,13.9,2.1,3.9,31.4,43.2,32.1,45.1s13,6.2,21.1,0c8.1-6.2,32-64.5,32-64.5h10.5c5.3,44.9,31.3,70.7,56.7,66.4,25.4-4.4,25.4-62.4,25.4-62.4,9.3,79,47.1,76,47.1,76,36-3.7,41.4-45.6,41.4-45.6h0Z"/>
        <path class="cls-3" d="M484,404.2c9.3,1.9,18,14.9,18,14.9-54.6,105.4-126.8,106-126.8,106,8.3-6.8-29.4-71.3-65.4-99.8s-26-63.9,34.7-76.3c60.8-12.4,139.5,55.2,139.5,55.2h0Z"/>
        <path class="cls-4" d="M229.2,489.7c24.8,55.2,93,117.2,179.2,111.6,86.2-5.6,111.6-121.5,111.6-121.5"/>
      </g>
    </g>
  </g>
</svg>