<?xml version="1.0" encoding="UTF-8"?>
<svg xmlns="http://www.w3.org/2000/svg" version="1.1" viewBox="0 0 1290 623">
  <defs>
    <style>
      .cls-1 {
        fill: #c1272d;
        stroke-miterlimit: 10;
      }

      .cls-1, .cls-2, .cls-3, .cls-4 {
        stroke: #000;
        stroke-width: 10px;
      }

      .cls-2 {
        fill: #fff;
      }

      .cls-2, .cls-3, .cls-4 {
        stroke-linejoin: bevel;
      }

      .cls-3 {
        fill: red;
      }

      .cls-4 {
        fill: none;
      }
    </style>
  </defs>
  <!-- Generator: Adobe Illustrator 28.7.1, SVG Export Plug-In . SVG Version: 1.2.0 Build 142)  -->
  <g>
    <g id="Camada_2">
      <g>
        <path class="cls-1" d="M297.3,368.1s0-178.9,198.7-211.3c211.6-34.5,435.8,7.8,478.4,114.1,42.6,106.2,12,198.1-107.4,191.5-119.5-6.6-238.1-32.9-331.8.3-93.8,33.3-234.2,17.1-237.8-94.6h0Z"/>
        <path class="cls-3" d="M776,454.7s103.5-221.1-40.5-267.3c-115.8-37.2-224.5,38.4-198.1,84.6,0,0,5.4,15.6,33,13.8,27.6-1.8,66.7-24.5,74.5,7,7.8,31.4-35.8,149-52.1,156.6-16.4,7.5,56.2-18.5,179.9,5.3"/>
        <path class="cls-2" d="M467.6,162.7s11.1,36.7,32.7,40.9c21.6,4.2,52.2-30.6,58.8-52.2,0,0,19.9,49.9,49.9,52.6s43.8-46.6,45.3-52.6c0,0,9.9,57.6,30.3,65.4,0,0,33.9,20,68.3-64.1,0,0,6.8,66.5,29,74.9,0,0,34.1,25.5,78.9-48.5,0,0-6.9,52.1,9.3,65.9s66.4,22,86-4.6c0,0-82.3-93.7-262.1-93.8s-213.4,12.4-226.3,16.1h0Z"/>
        <path class="cls-4" d="M705.1,448.4s61.1-79.7,19-153.6"/>
      </g>
    </g>
  </g>
</svg>