<?xml version="1.0" encoding="UTF-8"?>
<svg xmlns="http://www.w3.org/2000/svg" version="1.1" viewBox="0 0 1281 759.3">
  <defs>
    <style>
      .cls-1 {
        fill: #b4000a;
      }

      .cls-1, .cls-2 {
        stroke-width: 16px;
      }

      .cls-1, .cls-2, .cls-3 {
        stroke: #000;
      }

      .cls-1, .cls-3 {
        stroke-linecap: square;
        stroke-linejoin: bevel;
      }

      .cls-2 {
        fill: none;
        stroke-linecap: round;
        stroke-linejoin: round;
      }

      .cls-3 {
        fill: #fff;
        stroke-width: 10px;
      }
    </style>
  </defs>
  <!-- Generator: Adobe Illustrator 28.7.1, SVG Export Plug-In . SVG Version: 1.2.0 Build 142)  -->
  <g>
    <g id="Camada_1">
      <g id="Camada_1-2" data-name="Camada_1">
        <g id="Camada_1-2">
          <path class="cls-1" d="M101.6,316.9s63.3-87.5,379.9-111.7c316.6-24.2,495.3-63.3,614.5,39.1,119.2,102.4,163.9,180.6,130.3,236.5-33.6,55.9-57.7,197.4-210.4,180.6s-378-100.6-491.6-78.2-143.4,130.3-253.2,93.1c-109.9-37.2-260.7-178.8-169.4-359.4h-.1Z"/>
          <path class="cls-3" d="M1223.6,386.6c-20.8-40.9-63-88.2-126-142.3-119.2-102.4-297.9-63.3-614.5-39.1-316.6,24.2-379.9,111.7-379.9,111.7-6.6,13.1-12,26.1-16.2,38.8,15.2,79.9,49.8,175,127.9,172,108.7-4.1,87.6-160.3,62.9-246.1,25.6,67.1,77.3,184.1,125.2,181.5,60.5-3.4,75.5-120.5,50.4-202.2,24.5,60.5,93.3,205.9,169.3,146.3,59.3-46.5,49.6-115.6,34-160.8,30.7,64.1,88.8,173.8,132.1,184.2,61.4,14.9,79.7-185.4,83.4-230.1,0,0,5.9,275,93.5,267.5,68.7-5.8,101.6-118.1,118.9-188.5-14.3,65.2-32.4,178.6,11.1,189.1,40.4,9.8,94.4-34.3,127.8-82.1h0Z"/>
          <g>
            <path class="cls-3" d="M1095.2,482.1c-18.4,0-27.8,22-31.9,52.3-1.5-35.7-10.2-66.4-29.5-80.2-33.5-23.8-87.2,56.8-126.3,128.4,46.9-135.5-25.4-196-63.6-189.9-30.7,4.9-57.4,98.9-71.9,162.3,41.9-260.9-163.3-163.6-199.9-127.1-13.7,13.6-7,44.5,7.4,78.9-71.6-76.7-148.9-58.1-210.3-34-50.3,19.7,6,92.7,61.1,149.6,25.2-17.8,53.6-34.6,91.2-42,113.6-22.3,338.9,61.4,491.6,78.2,11.4,1.3,22.1,1.6,32.1,1.2,6.9-20.5,12.4-45,15.6-69.9.3,23.6,2,47.7,4,68,47.8-7.5,78.7-34.3,100.9-66.1-17.5-56-41.8-109.7-70.3-109.7h-.2Z"/>
            <path class="cls-3" d="M175.3,534.3c-27.5,15.1-34.1,37.2-27.9,62.3,36.8,37,81.4,63.7,120.6,77,73,24.8,110.7-14.7,161.1-50.4-72.7-59.6-180.8-128.8-253.8-88.9h0Z"/>
          </g>
        </g>
        <path class="cls-2" d="M472,701s73-83,190-30"/>
        <path class="cls-2" d="M117,235s207-93,349-83,311-11,347-28"/>
      </g>
    </g>
  </g>
</svg>