<?xml version="1.0" encoding="UTF-8"?>
<svg xmlns="http://www.w3.org/2000/svg" version="1.1" viewBox="0 0 1057 514.4">
  <defs>
    <style>
      .cls-1, .cls-2 {
        fill: #fff;
      }

      .cls-1, .cls-3, .cls-4, .cls-5 {
        stroke: #000;
        stroke-miterlimit: 10;
      }

      .cls-1, .cls-5 {
        stroke-width: 10px;
      }

      .cls-3 {
        fill: none;
      }

      .cls-3, .cls-4 {
        stroke-width: 16px;
      }

      .cls-4 {
        fill: #c1272d;
      }

      .cls-5 {
        fill: #b10a00;
      }
    </style>
  </defs>
  <!-- Generator: Adobe Illustrator 28.7.1, SVG Export Plug-In . SVG Version: 1.2.0 Build 142)  -->
  <g>
    <g id="Camada_1">
      <g id="Camada_1-2" data-name="Camada_1">
        <path class="cls-4" d="M1049,8c-8,150.9-325,555.7-618,491.6C139.1,435.7,9,83.7,8,80.9c23.5,18.5,53,32.9,87.1,44-12.8,37.2-22.3,91.6,16.8,119.6,33.7,24.1,48.8-26,55.6-77.7.4,40.1,6,79.3,25.3,84,30.8,7.4,57.3-26.8,76.3-95.5-2.2,29.3.6,60.8,16.4,83,24.5,34.3,52-25.7,66.2-81.2h10.4c2.2,42.3,6.8,88.7,16.2,94.7,16.1,10.4,82.7,46.6,93.3-97.6,2.4-.1,4.8-.2,7.2-.4,4.7,31.9,12.3,69.7,23.2,82.4,18.3,21.3,93.6,15.7,77-85.8,7.9,23.4,24.3,55,58,75.1,36.1,21.5,51.4-39.2,57.8-89.7,1.5-.2,2.9-.3,4.3-.5,3.8,20.7,12.7,42.4,31.9,57.5,30.8,24.2,57.9-25.6,71.2-76,4.7-1.1,9.3-2.3,13.9-3.5,5.8,40.9,13.9,83.3,20.8,83.3,13.9,0,55.6,19.1,92-121.2,1.7-.7,3.3-1.4,4.9-2.1-2.5,29.5-4.1,68.1,3.8,77.5,10.8,12.8,54.5-59.1,65.8-112.4,30.2-17.6,45.4-30.3,45.4-30.3h.2Z"/>
        <path class="cls-1" d="M167.6,166.8c-6.7,51.8-21.8,101.9-55.6,77.7-39.1-28-29.7-82.4-16.8-119.6,22.4,7.3,46.8,13.1,72.7,17.7-.3,7.9-.4,16-.3,24.1h0Z"/>
        <path class="cls-2" d="M201.1,258.8c-3.1,0-6.2-.4-9.4-1.1-19-4.6-28.6-33.6-29.2-88.8,0-7.7,0-15.9.3-24.4l.2-5.8,5.7,1.1c.7.1,1.4.2,2.2.4,29.6,5.2,62.8,8.9,98.7,11.2h.2c25.7,1.6,53.3,2.6,82,2.7h6.4l-1.6,6.2c-5.7,22.3-26.5,95.1-55.8,95.1s-13.5-4.1-19.2-12.1c-9.8-13.8-15.6-31.7-17.4-53.7-6.4,17.3-13.5,31.5-21.1,42.3-12.5,17.9-26.6,27-41.9,27h-.1Z"/>
        <path d="M167.9,142.7c.8.1,1.5.3,2.3.4,31.1,5.4,64.4,9.1,99.1,11.3h.2c26.7,1.7,54.2,2.6,82.3,2.7-11.3,44.2-31.1,91.3-51,91.3s-10.2-3.1-15.2-10.1c-15.8-22.2-18.6-53.7-16.4-83-17.3,62.5-40.8,96.5-68.1,96.5s-5.4-.3-8.2-1c-19.4-4.7-24.9-43.9-25.3-84,0-8.1,0-16.2.3-24.1M158.3,130.7l-.4,11.6c-.3,8.6-.4,16.8-.3,24.6.2,23.7,2.2,43.1,5.9,57.6,5.2,20.8,14.3,32.9,27.1,36,3.5.9,7.1,1.3,10.6,1.3,17,0,32.4-9.8,46-29.1,5.1-7.4,10.1-16.1,14.7-26.3,3.1,14.7,8.3,27.3,15.7,37.7,6.7,9.5,14.6,14.2,23.3,14.2,13.5,0,25.8-11.3,37.6-34.5,8.5-16.7,16.7-39.5,23-64.3l3.2-12.4h-12.8c-28.6-.2-56.1-1.2-81.7-2.8h-.3c-35.7-2.3-68.6-6-97.9-11.2h0c-.7-.1-1.4-.2-2.1-.4l-11.4-2.1h-.2Z"/>
        <path class="cls-1" d="M471.6,154.2c-10.6,144.2-77.2,108-93.3,97.6-9.4-6-13.9-52.3-16.2-94.7,35.9,0,72.6-1.1,109.5-2.9h0Z"/>
        <path class="cls-1" d="M694.8,135.9c-6.4,50.4-21.7,111.2-57.8,89.7-33.7-20.1-50.1-51.6-58-75.1,16.6,101.4-58.7,107-77,85.8-10.9-12.7-18.5-50.5-23.2-82.4,33.1-1.7,66.4-4.1,99.1-6.8h.5c34.5-2.9,68.6-6.1,101.5-9.5,5-.5,9.9-1.1,14.8-1.6h.1Z"/>
        <path class="cls-1" d="M802.2,116.8c-13.3,50.4-40.4,100.2-71.2,76-19.2-15.1-28.1-36.8-31.9-57.5,37.3-4.6,71.7-11,103.1-18.6h0Z"/>
        <path class="cls-1" d="M929,75.4c-36.4,140.3-78.1,121.2-92,121.2s-15-42.3-20.8-83.3c43.7-11.2,81.4-24.6,112.8-37.9h0Z"/>
        <path class="cls-1" d="M1003.6,38.3c-11.3,53.4-55,125.3-65.8,112.4-7.9-9.4-6.4-48-3.8-77.5,28.5-12.3,51.7-24.5,69.6-35h0Z"/>
        <path class="cls-3" d="M0,75.4C149,172,759,203,1057,0"/>
        <path class="cls-5" d="M246.9,411.5s149.2-147.4,265.8-48.1c0,0,68.5-179.4,139-24.8,48.8,107,43,110.2,43,110.2,0,0-219.7,154.9-447.9-37.3h.1Z"/>
      </g>
    </g>
  </g>
</svg>