<?xml version="1.0" encoding="UTF-8"?>
<svg xmlns="http://www.w3.org/2000/svg" version="1.1" viewBox="0 0 677.8 783.7">
  <defs>
    <style>
      .cls-1 {
        fill: #c1272d;
      }

      .cls-1, .cls-2, .cls-3, .cls-4, .cls-5 {
        stroke: #000;
        stroke-linejoin: bevel;
      }

      .cls-1, .cls-3 {
        stroke-width: 16px;
      }

      .cls-2, .cls-4, .cls-5 {
        stroke-width: 10px;
      }

      .cls-2, .cls-5 {
        fill: #fff;
      }

      .cls-3 {
        fill: none;
      }

      .cls-4 {
        fill: red;
      }

      .cls-5 {
        stroke-linecap: square;
      }
    </style>
  </defs>
  <!-- Generator: Adobe Illustrator 28.7.1, SVG Export Plug-In . SVG Version: 1.2.0 Build 142)  -->
  <g>
    <g id="Camada_1">
      <g id="Camada_1-2" data-name="Camada_1">
        <g id="Camada_3">
          <g>
            <path class="cls-1" d="M206.9,417.3c-2.9-8-70-66.4-80.2-157.6-10.3-91.2,65.6-91.9,106.3-107.2s130.1-2.9,203.7,0c73.7,2.9,108.7,121.1,104.6,225.4-4.1,104.3-142.6,167.1-142.6,167.1-88.3,28.5-189-119.7-191.8-127.7h0Z"/>
            <path class="cls-2" d="M494.9,185.6c-46.8-44.9-31.2-23-73.4-33.9-42.2-10.9-179.6-4.4-186.3,0-6.7,4.3-56,11.7-53.6,16.4s37,50.8,37.7,53,15.3,7.3,24.8,0,37.7-75.9,37.7-75.9l12.3-.2c6.2,53,36.8,83.3,66.8,78.2,29.9-5.1,29.9-73.3,29.9-73.3,10.9,92.9,55.5,89.4,55.5,89.4,42.3-4.4,48.8-53.7,48.8-53.7h-.2Z"/>
            <path class="cls-4" d="M509.7,406.4c11,2.2,21.2,17.5,21.2,17.5-64.2,124-149.2,124.7-149.2,124.7,9.8-8-34.6-83.9-77-117.4-42.3-33.6-30.6-75.1,40.8-89.7,71.5-14.6,164.1,64.9,164.1,64.9h.1Z"/>
            <path class="cls-3" d="M209.9,507c29.2,64.9,109.5,137.9,210.9,131.3,101.4-6.5,131.3-143,131.3-143"/>
          </g>
          <path class="cls-5" d="M323.5,534s-14.2-54.6,0-65.4,58.9,56.2,50.6,77.2c0,0-16-45.1-9.6-78.4s81.6,53.6,73.3,62.2c0,0-28.7-80.2-11.4-89.7,17.2-9.6,52,46.5,51.2,53,0,0-37.3,39.4-52.2,43.3-14.9,3.9-50.6,35.7-102-2.2h.1Z"/>
        </g>
      </g>
    </g>
  </g>
</svg>