<?xml version="1.0" encoding="UTF-8"?>
<svg xmlns="http://www.w3.org/2000/svg" version="1.1" viewBox="0 0 1175.4 773.9">
  <defs>
    <style>
      .cls-1 {
        fill: #6a000e;
      }

      .cls-1, .cls-2, .cls-3 {
        stroke: #000;
        stroke-linecap: square;
        stroke-linejoin: bevel;
        stroke-width: 10px;
      }

      .cls-2 {
        fill: #ff0007;
      }

      .cls-3 {
        fill: #fff;
      }
    </style>
  </defs>
  <!-- Generator: Adobe Illustrator 28.7.1, SVG Export Plug-In . SVG Version: 1.2.0 Build 142)  -->
  <g>
    <g id="Camada_2">
      <g>
        <path class="cls-1" d="M282.1,431.7s200.5-181.1,216.2-196.3,127.7-84.8,193.7-11c66,73.8,192.1,195.8,202.6,196.8,0,0-133,59.7-151.3,93.7-18.3,34-139.7,125.6-263,28.8s-153.1-137.1-198.2-112Z"/>
        <path class="cls-2" d="M426.6,496.1s-14.7-19.4,13.1-26.7c27.7-7.3,146.7,22.7,135.1-67.2-11.6-89.8,27.2-185.1,99.9-137s122.9,163.9,123,206c0,0-50.3,32.3-63.7,56.3-25.2,45-184.9,116.7-307.4-31.5h0Z"/>
        <path class="cls-3" d="M431.7,295.9s41.8,86.3,65.9,59.7c24-26.6,6.6-94.5-7.1-112.9,0,0,55.8,59.6,79.2,45.3s-9.5-86.5-9.5-86.5c0,0,34.7,73.8,69.3,65.7,34.6-8.1,22.3-70.2,22.3-70.2,0,0-2.8,76.4,14.8,81.8s57.8,4,68.5-8c0,0-44.5-77-118.6-83.5s-184.8,108.7-184.8,108.7h0Z"/>
      </g>
    </g>
  </g>
</svg>