<?xml version="1.0" encoding="UTF-8"?>
<svg xmlns="http://www.w3.org/2000/svg" version="1.1" viewBox="0 0 381.6 142.5">
  <!-- Generator: Adobe Illustrator 28.7.1, SVG Export Plug-In . SVG Version: 1.2.0 Build 142)  -->
  <g>
    <g id="Camada_1">
      <g id="Camada_1-2" data-name="Camada_1">
        <path d="M381.6,141.6l-.5.9c-16.4-3.9-32.5-7.9-48.5-11.9-46.8-11.6-94.6-23.3-141.6-30.3-30.5-4.7-61.3-6.4-91.8-6-23,.3-45.5,2.2-68.1,7.5-6,1.3-12.2,3.1-18.1,4.8-2,.7-4.1,1.3-6.3,1.9l-.7-.8c3-6,6.9-11.6,11.4-16.6,34-37.4,86.2-47.7,141.8-42.1,13.6-7.2,26.8-15.5,38.3-25.7,5.1-4.8,10-10.1,12.3-16.8l1,.2c-2,14.1-14.4,27-24,36.9-2.7,2.7-5.5,5.3-8.3,7.9,7.9,1.3,15.9,2.8,23.8,4.7,19-9.7,37.6-20.9,53.5-35,6.4-5.9,12.6-12.6,15.4-21l1.2.2c-2.5,17.5-18,33.8-29.9,46.1-5.5,5.4-11.1,10.7-17,15.7,9.6,2.8,19,5.9,28.4,9.2,25-12.5,49.5-26.8,70.4-45.4,7.8-7.3,15.4-15.5,18.9-25.9l1.5.3c-3.1,21.6-22.2,41.5-36.8,56.7-8.8,8.7-17.8,16.9-27.3,24.8,40.2,17.2,76,38.8,100.9,59.8h0Z"/>
      </g>
    </g>
  </g>
</svg>